<svg xmlns="http://www.w3.org/2000/svg">
  <symbol id="icon-document" viewBox="0 0 512 512" fill="currentColor">
    <path d="m446.605 124.392-119.997-119.997c-2.801-2.802-6.624-4.395-10.608-4.395h-210c-24.813 0-45 20.187-45 45v422c0 24.813 20.187 45 45 45h300c24.813 0 45-20.187 45-45v-332c0-4.09-1.717-7.931-4.395-10.608zm-115.605-73.179 68.787 68.787h-53.787c-8.271 0-15-6.729-15-15zm75 430.787h-300c-8.271 0-15-6.729-15-15v-422c0-8.271 6.729-15 15-15h195v75c0 24.813 20.187 45 45 45h75v317c0 8.271-6.729 15-15 15z"/>
    <path d="m346 212h-180c-8.284 0-15 6.716-15 15s6.716 15 15 15h180c8.284 0 15-6.716 15-15s-6.716-15-15-15z"/>
    <path d="m346 272h-180c-8.284 0-15 6.716-15 15s6.716 15 15 15h180c8.284 0 15-6.716 15-15s-6.716-15-15-15z"/>
    <path d="m346 332h-180c-8.284 0-15 6.716-15 15s6.716 15 15 15h180c8.284 0 15-6.716 15-15s-6.716-15-15-15z"/>
    <path d="m286 392h-120c-8.284 0-15 6.716-15 15s6.716 15 15 15h120c8.284 0 15-6.716 15-15s-6.716-15-15-15z"/>
  </symbol>
  <symbol id="icon-search" viewBox="0 0 515.558 515.558" fill="currentColor">
    <path d="m378.344 332.78c25.37-34.645 40.545-77.2 40.545-123.333 0-115.484-93.961-209.445-209.445-209.445s-209.444 93.961-209.444 209.445 93.961 209.445 209.445 209.445c46.133 0 88.692-15.177 123.337-40.547l137.212 137.212 45.564-45.564c0-.001-137.214-137.213-137.214-137.213zm-168.899 21.667c-79.958 0-145-65.042-145-145s65.042-145 145-145 145 65.042 145 145-65.043 145-145 145z"/>
  </symbol>
</svg>