<svg xmlns="http://www.w3.org/2000/svg">
  <symbol id="icon-document" viewBox="0 0 512 512" fill="currentColor">
    <path d="m446.605 124.392-119.997-119.997c-2.801-2.802-6.624-4.395-10.608-4.395h-210c-24.813 0-45 20.187-45 45v422c0 24.813 20.187 45 45 45h300c24.813 0 45-20.187 45-45v-332c0-4.09-1.717-7.931-4.395-10.608zm-115.605-73.179 68.787 68.787h-53.787c-8.271 0-15-6.729-15-15zm75 430.787h-300c-8.271 0-15-6.729-15-15v-422c0-8.271 6.729-15 15-15h195v75c0 24.813 20.187 45 45 45h75v317c0 8.271-6.729 15-15 15z"/>
    <path d="m346 212h-180c-8.284 0-15 6.716-15 15s6.716 15 15 15h180c8.284 0 15-6.716 15-15s-6.716-15-15-15z"/>
    <path d="m346 272h-180c-8.284 0-15 6.716-15 15s6.716 15 15 15h180c8.284 0 15-6.716 15-15s-6.716-15-15-15z"/>
    <path d="m346 332h-180c-8.284 0-15 6.716-15 15s6.716 15 15 15h180c8.284 0 15-6.716 15-15s-6.716-15-15-15z"/>
    <path d="m286 392h-120c-8.284 0-15 6.716-15 15s6.716 15 15 15h120c8.284 0 15-6.716 15-15s-6.716-15-15-15z"/>
  </symbol>
  <symbol id="icon-search" viewBox="0 0 515.558 515.558" fill="currentColor">
    <path d="m378.344 332.78c25.37-34.645 40.545-77.2 40.545-123.333 0-115.484-93.961-209.445-209.445-209.445s-209.444 93.961-209.444 209.445 93.961 209.445 209.445 209.445c46.133 0 88.692-15.177 123.337-40.547l137.212 137.212 45.564-45.564c0-.001-137.214-137.213-137.214-137.213zm-168.899 21.667c-79.958 0-145-65.042-145-145s65.042-145 145-145 145 65.042 145 145-65.043 145-145 145z"/>
  </symbol>
  <symbol id="icon-click" viewBox="-73 0 511 512" fill="currentColor">
    <path d="m141.550781 0c-65.144531 0-115.128906 58.84375-103.957031 123.554688 1.414062 8.1875 9.199219 13.640624 17.332031 12.230468 8.164063-1.410156 13.640625-9.167968 12.230469-17.332031-7.988281-46.289063 27.71875-88.453125 74.394531-88.453125 46.535157 0 82.308594 41.964844 74.429688 88.269531-1.390625 8.167969 4.105469 15.914063 12.269531 17.304688 8.167969 1.394531 15.914062-4.105469 17.304688-12.273438 10.964843-64.449219-38.78125-123.300781-104.003907-123.300781zm0 0"/>
    <path d="m301.171875 240.632812c-11.324219-22.21875-38.207031-30.773437-60-20-10.273437-20.15625-33.742187-29.484374-54.839844-22.160156v-91.851562c0-24.484375-19.675781-44.941406-43.867187-45.605469-25.347656-.71875-46.351563 19.582031-46.351563 44.984375v231.082031l-17.621093-18.453125c-16.914063-17.707031-45.234376-18.953125-63.136719-2.769531-18.890625 17.074219-19.832031 46.148437-2.4375 64.421875l101.273437 108.019531c14.125 15.058594 34.066406 23.699219 54.714844 23.699219h122.144531c41.355469 0 75-33.644531 75-75v-156c0-33.332031-35.160156-55.0625-64.878906-40.367188zm0 0"/>
  </symbol>
  <symbol id="icon-diamond" viewBox="0 0 512 512" fill="currentColor">
    <g>
      <g>
        <polygon points="376.822,153.145 281.402,455.309 512,153.145 		"/>
      </g>
    </g>
    <g>
      <g>
        <polygon points="74.336,46.263 1.082,134.168 125.614,134.168 		"/>
      </g>
    </g>
    <g>
      <g>
        <polygon points="437.664,46.263 386.386,134.168 510.918,134.168 		"/>
      </g>
    </g>
    <g>
      <g>
        <polygon points="135.178,153.145 0,153.145 230.598,455.309 		"/>
      </g>
    </g>
    <g>
      <g>
        <polygon points="278.906,39.279 367.874,128.247 419.768,39.279 		"/>
      </g>
    </g>
    <g>
      <g>
        <polygon points="92.232,39.279 144.126,128.247 233.094,39.279 		"/>
      </g>
    </g>
    <g>
      <g>
        <polygon points="155.076,153.145 256,472.721 356.924,153.145 		"/>
      </g>
    </g>
    <g>
      <g>
        <polygon points="256,43.208 165.04,134.168 346.96,134.168 		"/>
      </g>
    </g>
  </symbol>
  <symbol id="icon-lamp" viewBox="0 0 512 512" fill="currentColor">
    <g id="Idea_1_">
      <g>
        <path d="m256 61c-8.291 0-15-6.709-15-15v-31c0-8.291 6.709-15 15-15s15 6.709 15 15v31c0 8.291-6.709 15-15 15z"/>
      </g>
      <g>
        <path d="m398.896 143.5c-4.146-7.178-1.685-16.348 5.493-20.493l25.972-15c7.148-4.175 16.333-1.714 20.493 5.493 4.146 7.178 1.685 16.348-5.493 20.493l-25.972 15c-7.153 4.132-16.345 1.691-20.493-5.493z"/>
      </g>
      <g>
        <path d="m61.146 338.5c-4.146-7.178-1.685-16.348 5.493-20.493l25.972-15c7.119-4.16 16.333-1.699 20.493 5.493 4.146 7.178 1.685 16.348-5.493 20.493l-25.972 15c-7.152 4.132-16.344 1.691-20.493-5.493z"/>
      </g>
      <g>
        <path d="m338.5 83.104c-7.178-4.146-9.639-13.315-5.493-20.493l15-25.972c4.146-7.222 13.315-9.653 20.493-5.493 7.178 4.146 9.639 13.315 5.493 20.493l-15 25.972c-4.156 7.197-13.354 9.617-20.493 5.493z"/>
      </g>
      <g>
        <path d="m153.007 77.611-15-25.972c-4.146-7.178-1.685-16.348 5.493-20.493 7.134-4.16 16.348-1.729 20.493 5.493l15 25.972c4.146 7.178 1.685 16.348-5.493 20.493-7.153 4.132-16.344 1.691-20.493-5.493z"/>
      </g>
      <g>
        <path d="m430.36 343.993-25.972-15c-7.178-4.146-9.639-13.315-5.493-20.493 4.146-7.192 13.33-9.653 20.493-5.493l25.972 15c7.178 4.146 9.639 13.315 5.493 20.493-4.156 7.197-13.354 9.617-20.493 5.493z"/>
      </g>
      <g>
        <path d="m92.611 148.993-25.972-15c-7.178-4.146-9.639-13.315-5.493-20.493 4.131-7.207 13.301-9.668 20.493-5.493l25.972 15c7.178 4.146 9.639 13.315 5.493 20.493-4.156 7.197-13.354 9.617-20.493 5.493z"/>
      </g>
      <g>
        <path d="m466 241h-30c-8.291 0-15-6.709-15-15s6.709-15 15-15h30c8.291 0 15 6.709 15 15s-6.709 15-15 15z"/>
      </g>
      <g>
        <path d="m76 241h-30c-8.291 0-15-6.709-15-15s6.709-15 15-15h30c8.291 0 15 6.709 15 15s-6.709 15-15 15z"/>
      </g>
      <g>
        <path d="m256 512c33.091 0 60-26.909 60-60h-119.899c.542 33.721 26.603 60 59.899 60z"/>
        <path d="m256 91.016c-83.974-.151-126.505 69.091-133.359 113.685-5.449 35.464 2.871 70.825 23.438 99.565 27.391 38.269 42.955 77.437 47.748 116.733h124.222c4.548-40.505 19.649-79.459 45.632-113.687 17.871-23.568 27.319-51.678 27.319-81.312 0-56.639-44.23-134.821-135-134.984zm40.605 145.589-25.605 25.606v53.789c0 8.291-6.709 15-15 15s-15-6.709-15-15v-53.789l-25.605-25.605c-5.859-5.859-5.859-15.352 0-21.211s15.352-5.859 21.211 0l19.394 19.394 19.395-19.395c5.859-5.859 15.352-5.859 21.211 0s5.859 15.352-.001 21.211z"/>
      </g>
    </g>
  </symbol>
  <symbol id="icon-devices" viewBox="0 0 480 480" fill="currentColor">
    <g>
      <g>
        <path d="M456,240h-8V72c-0.026-22.08-17.92-39.974-40-40H72c-22.08,0.026-39.974,17.92-40,40v120h-8c-13.255,0-24,10.745-24,24
          v208c0,13.255,10.745,24,24,24h304c4.418,0,8-3.582,8-8c-0.026-22.08-17.92-39.974-40-40h-24v-48h96v72c0,13.255,10.745,24,24,24
          h64c13.255,0,24-10.745,24-24V264C480,250.745,469.255,240,456,240z M176,424c0,4.418-3.582,8-8,8H24c-4.418,0-8-3.582-8-8v-8h160
          V424z M176,400H16V216c0-4.418,3.582-8,8-8h144c4.418,0,8,3.582,8,8V400z M296,416c10.168,0.012,19.229,6.418,22.632,16H190.528
          c0.948-2.562,1.445-5.268,1.472-8v-8H296z M192,400v-48h16v48H192z M224,400v-48h32v48H224z M368,336H192v-48h176V336z M368,264v8
          H192v-56c-0.027-3.796-0.966-7.53-2.736-10.888c0.12-0.112,0.28-0.144,0.392-0.264l79.2-79.2c3.07-3.178,2.982-8.243-0.196-11.312
          c-3.1-2.994-8.015-2.994-11.116,0l-79.2,79.2c-0.192,0.2-0.272,0.456-0.44,0.664c-3.104-1.44-6.483-2.19-9.904-2.2H48V72
          c0-13.255,10.745-24,24-24h336c13.255,0,24,10.745,24,24v168h-40C378.745,240,368,250.745,368,264z M464,424c0,4.418-3.582,8-8,8
          h-64c-4.418,0-8-3.582-8-8v-8h80V424z M464,400h-80V264c0-4.418,3.582-8,8-8h64c4.418,0,8,3.582,8,8V400z"/>
      </g>
    </g>
    <g>
      <g>
        <path d="M95.592,289.376c-3.124-3.123-8.188-3.123-11.312,0l-33.936,33.936c-3.178,3.07-3.266,8.134-0.196,11.312
          c3.07,3.178,8.134,3.266,11.312,0.196c0.067-0.064,0.132-0.13,0.196-0.196l33.936-33.936
          C97.02,298.213,94.15,293.508,95.592,289.376z"/>
      </g>
    </g>
    <g>
      <g>
        <path d="M143.396,289.376c-3.1-2.994-8.015-2.994-11.116,0l-33.936,33.936c-3.178,3.069-3.266,8.134-0.196,11.312
          c3.069,3.178,8.134,3.266,11.312,0.196c0.067-0.064,0.132-0.13,0.196-0.196l33.936-33.936
          C146.661,297.51,146.574,292.445,143.396,289.376z"/>
      </g>
    </g>
    <g>
      <g>
        <path d="M317.46,114.344c-3.1-2.994-8.015-2.994-11.116,0l-79.2,79.2c-3.178,3.069-3.266,8.134-0.197,11.312
          c3.069,3.178,8.134,3.266,11.312,0.197c0.067-0.064,0.132-0.13,0.197-0.197l79.2-79.2
          C320.726,122.478,320.638,117.413,317.46,114.344z"/>
      </g>
    </g>
    <g>
      <g>
        <path d="M440.772,311.032c-3.1-2.995-8.016-2.995-11.116,0l-22.624,22.624c-3.178,3.07-3.266,8.134-0.196,11.312
          c3.07,3.178,8.134,3.266,11.312,0.196c0.066-0.064,0.132-0.13,0.196-0.196l22.624-22.624
          C444.038,319.166,443.95,314.102,440.772,311.032z"/>
      </g>
    </g>
    <g>
      <g>
        <path d="M240.16,304h-0.08c-4.418,0.022-7.982,3.622-7.96,8.04s3.622,7.982,8.04,7.96c4.418,0,8-3.582,8-8S244.578,304,240.16,304
          z"/>
      </g>
    </g>
    <g>
      <g>
        <path d="M256,64h-32c-4.418,0-8,3.582-8,8s3.582,8,8,8h32c4.418,0,8-3.582,8-8S260.418,64,256,64z"/>
      </g>
    </g>
  </symbol>
</svg>