<svg xmlns="http://www.w3.org/2000/svg">
  <symbol id="icon-document" viewBox="0 0 512 512" fill="currentColor">
    <path d="m446.605 124.392-119.997-119.997c-2.801-2.802-6.624-4.395-10.608-4.395h-210c-24.813 0-45 20.187-45 45v422c0 24.813 20.187 45 45 45h300c24.813 0 45-20.187 45-45v-332c0-4.09-1.717-7.931-4.395-10.608zm-115.605-73.179 68.787 68.787h-53.787c-8.271 0-15-6.729-15-15zm75 430.787h-300c-8.271 0-15-6.729-15-15v-422c0-8.271 6.729-15 15-15h195v75c0 24.813 20.187 45 45 45h75v317c0 8.271-6.729 15-15 15z"/>
    <path d="m346 212h-180c-8.284 0-15 6.716-15 15s6.716 15 15 15h180c8.284 0 15-6.716 15-15s-6.716-15-15-15z"/>
    <path d="m346 272h-180c-8.284 0-15 6.716-15 15s6.716 15 15 15h180c8.284 0 15-6.716 15-15s-6.716-15-15-15z"/>
    <path d="m346 332h-180c-8.284 0-15 6.716-15 15s6.716 15 15 15h180c8.284 0 15-6.716 15-15s-6.716-15-15-15z"/>
    <path d="m286 392h-120c-8.284 0-15 6.716-15 15s6.716 15 15 15h120c8.284 0 15-6.716 15-15s-6.716-15-15-15z"/>
  </symbol>
  <symbol id="icon-search" viewBox="0 0 515.558 515.558" fill="currentColor">
    <path d="m378.344 332.78c25.37-34.645 40.545-77.2 40.545-123.333 0-115.484-93.961-209.445-209.445-209.445s-209.444 93.961-209.444 209.445 93.961 209.445 209.445 209.445c46.133 0 88.692-15.177 123.337-40.547l137.212 137.212 45.564-45.564c0-.001-137.214-137.213-137.214-137.213zm-168.899 21.667c-79.958 0-145-65.042-145-145s65.042-145 145-145 145 65.042 145 145-65.043 145-145 145z"/>
  </symbol>
  <symbol id="icon-click" viewBox="-73 0 511 512" fill="currentColor">
    <path d="m141.550781 0c-65.144531 0-115.128906 58.84375-103.957031 123.554688 1.414062 8.1875 9.199219 13.640624 17.332031 12.230468 8.164063-1.410156 13.640625-9.167968 12.230469-17.332031-7.988281-46.289063 27.71875-88.453125 74.394531-88.453125 46.535157 0 82.308594 41.964844 74.429688 88.269531-1.390625 8.167969 4.105469 15.914063 12.269531 17.304688 8.167969 1.394531 15.914062-4.105469 17.304688-12.273438 10.964843-64.449219-38.78125-123.300781-104.003907-123.300781zm0 0"/>
    <path d="m301.171875 240.632812c-11.324219-22.21875-38.207031-30.773437-60-20-10.273437-20.15625-33.742187-29.484374-54.839844-22.160156v-91.851562c0-24.484375-19.675781-44.941406-43.867187-45.605469-25.347656-.71875-46.351563 19.582031-46.351563 44.984375v231.082031l-17.621093-18.453125c-16.914063-17.707031-45.234376-18.953125-63.136719-2.769531-18.890625 17.074219-19.832031 46.148437-2.4375 64.421875l101.273437 108.019531c14.125 15.058594 34.066406 23.699219 54.714844 23.699219h122.144531c41.355469 0 75-33.644531 75-75v-156c0-33.332031-35.160156-55.0625-64.878906-40.367188zm0 0"/>
  </symbol>
  <symbol id="icon-diamond" viewBox="0 0 512 512" fill="currentColor">
    <g>
      <g>
        <polygon points="376.822,153.145 281.402,455.309 512,153.145 		"/>
      </g>
    </g>
    <g>
      <g>
        <polygon points="74.336,46.263 1.082,134.168 125.614,134.168 		"/>
      </g>
    </g>
    <g>
      <g>
        <polygon points="437.664,46.263 386.386,134.168 510.918,134.168 		"/>
      </g>
    </g>
    <g>
      <g>
        <polygon points="135.178,153.145 0,153.145 230.598,455.309 		"/>
      </g>
    </g>
    <g>
      <g>
        <polygon points="278.906,39.279 367.874,128.247 419.768,39.279 		"/>
      </g>
    </g>
    <g>
      <g>
        <polygon points="92.232,39.279 144.126,128.247 233.094,39.279 		"/>
      </g>
    </g>
    <g>
      <g>
        <polygon points="155.076,153.145 256,472.721 356.924,153.145 		"/>
      </g>
    </g>
    <g>
      <g>
        <polygon points="256,43.208 165.04,134.168 346.96,134.168 		"/>
      </g>
    </g>
  </symbol>
  <symbol id="icon-lamp" viewBox="0 0 512 512" fill="currentColor">
    <g id="Idea_1_">
      <g>
        <path d="m256 61c-8.291 0-15-6.709-15-15v-31c0-8.291 6.709-15 15-15s15 6.709 15 15v31c0 8.291-6.709 15-15 15z"/>
      </g>
      <g>
        <path d="m398.896 143.5c-4.146-7.178-1.685-16.348 5.493-20.493l25.972-15c7.148-4.175 16.333-1.714 20.493 5.493 4.146 7.178 1.685 16.348-5.493 20.493l-25.972 15c-7.153 4.132-16.345 1.691-20.493-5.493z"/>
      </g>
      <g>
        <path d="m61.146 338.5c-4.146-7.178-1.685-16.348 5.493-20.493l25.972-15c7.119-4.16 16.333-1.699 20.493 5.493 4.146 7.178 1.685 16.348-5.493 20.493l-25.972 15c-7.152 4.132-16.344 1.691-20.493-5.493z"/>
      </g>
      <g>
        <path d="m338.5 83.104c-7.178-4.146-9.639-13.315-5.493-20.493l15-25.972c4.146-7.222 13.315-9.653 20.493-5.493 7.178 4.146 9.639 13.315 5.493 20.493l-15 25.972c-4.156 7.197-13.354 9.617-20.493 5.493z"/>
      </g>
      <g>
        <path d="m153.007 77.611-15-25.972c-4.146-7.178-1.685-16.348 5.493-20.493 7.134-4.16 16.348-1.729 20.493 5.493l15 25.972c4.146 7.178 1.685 16.348-5.493 20.493-7.153 4.132-16.344 1.691-20.493-5.493z"/>
      </g>
      <g>
        <path d="m430.36 343.993-25.972-15c-7.178-4.146-9.639-13.315-5.493-20.493 4.146-7.192 13.33-9.653 20.493-5.493l25.972 15c7.178 4.146 9.639 13.315 5.493 20.493-4.156 7.197-13.354 9.617-20.493 5.493z"/>
      </g>
      <g>
        <path d="m92.611 148.993-25.972-15c-7.178-4.146-9.639-13.315-5.493-20.493 4.131-7.207 13.301-9.668 20.493-5.493l25.972 15c7.178 4.146 9.639 13.315 5.493 20.493-4.156 7.197-13.354 9.617-20.493 5.493z"/>
      </g>
      <g>
        <path d="m466 241h-30c-8.291 0-15-6.709-15-15s6.709-15 15-15h30c8.291 0 15 6.709 15 15s-6.709 15-15 15z"/>
      </g>
      <g>
        <path d="m76 241h-30c-8.291 0-15-6.709-15-15s6.709-15 15-15h30c8.291 0 15 6.709 15 15s-6.709 15-15 15z"/>
      </g>
      <g>
        <path d="m256 512c33.091 0 60-26.909 60-60h-119.899c.542 33.721 26.603 60 59.899 60z"/>
        <path d="m256 91.016c-83.974-.151-126.505 69.091-133.359 113.685-5.449 35.464 2.871 70.825 23.438 99.565 27.391 38.269 42.955 77.437 47.748 116.733h124.222c4.548-40.505 19.649-79.459 45.632-113.687 17.871-23.568 27.319-51.678 27.319-81.312 0-56.639-44.23-134.821-135-134.984zm40.605 145.589-25.605 25.606v53.789c0 8.291-6.709 15-15 15s-15-6.709-15-15v-53.789l-25.605-25.605c-5.859-5.859-5.859-15.352 0-21.211s15.352-5.859 21.211 0l19.394 19.394 19.395-19.395c5.859-5.859 15.352-5.859 21.211 0s5.859 15.352-.001 21.211z"/>
      </g>
    </g>
  </symbol>
  <symbol id="icon-devices" viewBox="0 0 480 480" fill="currentColor">
    <g>
      <g>
        <path d="M456,240h-8V72c-0.026-22.08-17.92-39.974-40-40H72c-22.08,0.026-39.974,17.92-40,40v120h-8c-13.255,0-24,10.745-24,24
          v208c0,13.255,10.745,24,24,24h304c4.418,0,8-3.582,8-8c-0.026-22.08-17.92-39.974-40-40h-24v-48h96v72c0,13.255,10.745,24,24,24
          h64c13.255,0,24-10.745,24-24V264C480,250.745,469.255,240,456,240z M176,424c0,4.418-3.582,8-8,8H24c-4.418,0-8-3.582-8-8v-8h160
          V424z M176,400H16V216c0-4.418,3.582-8,8-8h144c4.418,0,8,3.582,8,8V400z M296,416c10.168,0.012,19.229,6.418,22.632,16H190.528
          c0.948-2.562,1.445-5.268,1.472-8v-8H296z M192,400v-48h16v48H192z M224,400v-48h32v48H224z M368,336H192v-48h176V336z M368,264v8
          H192v-56c-0.027-3.796-0.966-7.53-2.736-10.888c0.12-0.112,0.28-0.144,0.392-0.264l79.2-79.2c3.07-3.178,2.982-8.243-0.196-11.312
          c-3.1-2.994-8.015-2.994-11.116,0l-79.2,79.2c-0.192,0.2-0.272,0.456-0.44,0.664c-3.104-1.44-6.483-2.19-9.904-2.2H48V72
          c0-13.255,10.745-24,24-24h336c13.255,0,24,10.745,24,24v168h-40C378.745,240,368,250.745,368,264z M464,424c0,4.418-3.582,8-8,8
          h-64c-4.418,0-8-3.582-8-8v-8h80V424z M464,400h-80V264c0-4.418,3.582-8,8-8h64c4.418,0,8,3.582,8,8V400z"/>
      </g>
    </g>
    <g>
      <g>
        <path d="M95.592,289.376c-3.124-3.123-8.188-3.123-11.312,0l-33.936,33.936c-3.178,3.07-3.266,8.134-0.196,11.312
          c3.07,3.178,8.134,3.266,11.312,0.196c0.067-0.064,0.132-0.13,0.196-0.196l33.936-33.936
          C97.02,298.213,94.15,293.508,95.592,289.376z"/>
      </g>
    </g>
    <g>
      <g>
        <path d="M143.396,289.376c-3.1-2.994-8.015-2.994-11.116,0l-33.936,33.936c-3.178,3.069-3.266,8.134-0.196,11.312
          c3.069,3.178,8.134,3.266,11.312,0.196c0.067-0.064,0.132-0.13,0.196-0.196l33.936-33.936
          C146.661,297.51,146.574,292.445,143.396,289.376z"/>
      </g>
    </g>
    <g>
      <g>
        <path d="M317.46,114.344c-3.1-2.994-8.015-2.994-11.116,0l-79.2,79.2c-3.178,3.069-3.266,8.134-0.197,11.312
          c3.069,3.178,8.134,3.266,11.312,0.197c0.067-0.064,0.132-0.13,0.197-0.197l79.2-79.2
          C320.726,122.478,320.638,117.413,317.46,114.344z"/>
      </g>
    </g>
    <g>
      <g>
        <path d="M440.772,311.032c-3.1-2.995-8.016-2.995-11.116,0l-22.624,22.624c-3.178,3.07-3.266,8.134-0.196,11.312
          c3.07,3.178,8.134,3.266,11.312,0.196c0.066-0.064,0.132-0.13,0.196-0.196l22.624-22.624
          C444.038,319.166,443.95,314.102,440.772,311.032z"/>
      </g>
    </g>
    <g>
      <g>
        <path d="M240.16,304h-0.08c-4.418,0.022-7.982,3.622-7.96,8.04s3.622,7.982,8.04,7.96c4.418,0,8-3.582,8-8S244.578,304,240.16,304
          z"/>
      </g>
    </g>
    <g>
      <g>
        <path d="M256,64h-32c-4.418,0-8,3.582-8,8s3.582,8,8,8h32c4.418,0,8-3.582,8-8S260.418,64,256,64z"/>
      </g>
    </g>
  </symbol>
  <symbol id="icon-leaf" viewBox="0 0 551.391 551.391" fill="currentColor">
    <g>
      <path d="M413.695,0c0,0-45.366,44.014-94.43,61.759C-44.068,193.178,109.165,449.277,114.164,450.121
        c0,0,20.374-35.48,47.896-55.717c174.644-128.389,210.14-276.171,210.14-276.171s-39.19,177.829-194.562,288.479
        c-34.316,24.426-57.552,84.568-67.388,144.679c0,0,24.325-9.828,34.785-12.49c4.079-26.618,12.607-52.106,27.025-74.875
        c217.151,25.854,288.272-149.123,297.563-210.136C491.552,109.79,413.695,0,413.695,0z"/>
    </g>
  </symbol>
  <symbol id="icon-edit" viewBox="0 0 24 24" fill="currentColor">
    <path d="m19 12c-.553 0-1 .448-1 1v8c0 .551-.448 1-1 1h-14c-.552 0-1-.449-1-1v-14c0-.551.448-1 1-1h8c.553 0 1-.448 1-1s-.447-1-1-1h-8c-1.654 0-3 1.346-3 3v14c0 1.654 1.346 3 3 3h14c1.654 0 3-1.346 3-3v-8c0-.553-.447-1-1-1z"/>
    <path d="m9.376 11.089c-.07.07-.117.159-.137.255l-.707 3.536c-.033.164.019.333.137.452.095.095.223.146.354.146.032 0 .065-.003.098-.01l3.535-.707c.098-.02.187-.067.256-.137l7.912-7.912-3.535-3.535z"/>
    <path d="m23.268.732c-.975-.975-2.561-.975-3.535 0l-1.384 1.384 3.535 3.535 1.384-1.384c.472-.471.732-1.099.732-1.767s-.26-1.296-.732-1.768z"/>
  </symbol>
  <symbol id="icon-sandtime" viewBox="0 0 512 512" fill="currentColor">
    <g id="Solid">
      <path d="M256,352c-3.252,9.918-14.97,18.725-32.711,24.246-45.054,14.02-72.928,34.02-78.326,55.754H367.037c-5.4-21.734-33.272-41.734-78.326-55.754C270.97,370.725,259.252,361.918,256,352Z"/>
      <path d="M160.1,128c13.43,25.58,34.93,48.48,63.19,66.55A72.525,72.525,0,0,1,256,244.36a72.525,72.525,0,0,1,32.71-49.81c28.26-18.07,49.76-40.97,63.19-66.55Z"/>
      <path d="M305.949,221.507C363.206,184.9,400,127.959,400,64h0a16,16,0,0,0,16-16V24H96V47a16.985,16.985,0,0,0,16,16.949V64c0,63.959,36.794,120.9,94.051,157.507,25.159,16.086,25.159,52.9,0,68.986C148.794,327.1,112,384.041,112,448v.051A16.985,16.985,0,0,0,96,465v23H416V464a16,16,0,0,0-16-16h0c0-63.959-36.794-120.9-94.051-157.507C280.79,274.407,280.79,237.593,305.949,221.507ZM271.08,256a56.68,56.68,0,0,0,26.25,47.973C352.41,339.188,384,391.685,384,448H128c0-56.315,31.59-108.812,86.67-144.027a56.961,56.961,0,0,0,0-95.946C159.59,172.812,128,120.315,128,64H384c0,56.315-31.59,108.812-86.67,144.027A56.68,56.68,0,0,0,271.08,256Z"/>
      <path d="M256,287.487a7.5,7.5,0,0,0,7.5-7.5V272a7.5,7.5,0,0,0-15,0v7.987A7.5,7.5,0,0,0,256,287.487Z"/>
      <path d="M248.5,319.987a7.5,7.5,0,1,0,15,0V312a7.5,7.5,0,0,0-15,0Z"/>
    </g>
  </symbol>
  <symbol id="icon-notebook" viewBox="0 0 512 512" fill="currentColor">
    <g>
      <g>
        <path d="M39.822,59.733v295.822h432.355V59.733H39.822z M432.355,298.666H79.644V99.555h352.711V298.666z"/>
      </g>
    </g>
    <g>
      <g>
        <path d="M312.889,384v28.444H199.111V384H0v11.378c0,31.289,25.6,56.889,56.889,56.889h398.222
          c31.289,0,56.889-25.6,56.889-56.889V384H312.889z"/>
      </g>
    </g>
  </symbol>
  <symbol id="icon-configuration" viewBox="0 0 376.846 376.846" fill="currentColor">
    <g>
      <path d="M364.966,372.743c2.382-2.39,4.316-4.324,4.316-4.324l4.316-4.324
        c2.382-2.398-1.691-13.453-9.104-24.695l-19.013-28.865c-7.413-11.242-19.127-21.565-26.174-23.044
        c-7.047-1.488-12.762-2.691-12.762-2.691l-57.298-57.274L228.389,248.4l57.25,57.282l2.707,12.762
        c1.488,7.039,11.819,18.769,23.061,26.174l28.881,19.037C351.529,371.06,362.584,375.133,364.966,372.743z"/>
      <path d="M13.608,74.197l85.139,85.139l10.632,10.608c0.244,0.26,0.48,0.398,0.715,0.642l14.062-14.071
        L23.728,56.086c-2.447-2.422-2.447-6.397,0-8.795c2.422-2.455,6.34-2.455,8.795,0l100.396,100.453l15.664-15.696L48.154,31.635
        c-2.455-2.43-2.455-6.365,0-8.795c2.422-2.422,6.365-2.422,8.763,0l100.477,100.477l14.038-14.087
        c-0.211-0.244-0.366-0.504-0.585-0.74l-11.161-11.177l-84.594-84.57c-16.972-17.005-44.52-16.981-61.485,0
        C-3.389,29.709-3.389,57.224,13.608,74.197z"/>
      <path d="M375.728,81.651c-1.024-13.428-12.892-16.038-22.41-6.519l-33.262,33.27
        c-7.722,7.779-20.378,7.755-28.125,0l-21.549-21.524c-7.803-7.844-7.779-20.46-0.024-28.247l34.392-34.359
        c9.527-9.519,7.112-21.817-6.259-23.41c-25.865-3.089-52.82,5.275-72.678,25.117c-15.127,15.152-23.573,34.473-25.361,54.258
        c-0.715,7.999-0.341,16.07,1.097,24.004L16.965,288.84c-9.746,9.754-15.127,22.703-15.127,36.497
        c0,13.762,5.381,26.694,15.103,36.432c20.11,20.102,52.819,20.102,72.962,0c0,0,132.683-132.666,186.413-186.461
        c8.446,1.154,16.997,1.073,25.41-0.26c17.769-2.78,34.847-10.925,48.56-24.613C369.152,131.568,377.614,106.296,375.728,81.651z
        M70.857,345.91c-10.551,10.494-27.523,10.494-38.042-0.024c-10.47-10.445-10.494-27.499,0.024-37.969
        c10.494-10.47,27.466-10.445,37.985,0C81.295,318.387,81.295,335.441,70.857,345.91z"/>
    </g>
  </symbol>
  <symbol id="icon-telegram" viewBox="0 0 300 300" fill="currentColor">
    <g id="XMLID_496_">
      <path id="XMLID_497_" d="M5.299,144.645l69.126,25.8l26.756,86.047c1.712,5.511,8.451,7.548,12.924,3.891l38.532-31.412
        c4.039-3.291,9.792-3.455,14.013-0.391l69.498,50.457c4.785,3.478,11.564,0.856,12.764-4.926L299.823,29.22
        c1.31-6.316-4.896-11.585-10.91-9.259L5.218,129.402C-1.783,132.102-1.722,142.014,5.299,144.645z M96.869,156.711l135.098-83.207
        c2.428-1.491,4.926,1.792,2.841,3.726L123.313,180.87c-3.919,3.648-6.447,8.53-7.163,13.829l-3.798,28.146
        c-0.503,3.758-5.782,4.131-6.819,0.494l-14.607-51.325C89.253,166.16,91.691,159.907,96.869,156.711z"/>
    </g>
  </symbol>
  <symbol id="icon-equalizer" viewBox="0 0 512 512" fill="currentColor">
    <g>
      <path d="m0 31h60v150h-60z"/>
      <path d="m452 331h60v150h-60z"/>
      <path d="m226 181h60v150h-60z"/>
      <path d="m45 301h151v-90h-151c-24.814 0-45 20.186-45 45s20.186 45 45 45z"/>
      <path d="m467 211h-151v90h151c24.814 0 45-20.186 45-45s-20.186-45-45-45z"/>
      <path d="m467 61h-377v90h377c24.814 0 45-20.186 45-45s-20.186-45-45-45z"/>
      <path d="m45 451h377v-90h-377c-24.814 0-45 20.186-45 45s20.186 45 45 45z"/>
    </g>
  </symbol>
  <symbol id="icon-checked" viewBox="0 0 408.576 408.576" fill="currentColor">
    <g>
      <g>
        <path d="M204.288,0C91.648,0,0,91.648,0,204.288s91.648,204.288,204.288,204.288s204.288-91.648,204.288-204.288
          S316.928,0,204.288,0z M318.464,150.528l-130.56,129.536c-7.68,7.68-19.968,8.192-28.16,0.512L90.624,217.6
          c-8.192-7.68-8.704-20.48-1.536-28.672c7.68-8.192,20.48-8.704,28.672-1.024l54.784,50.176L289.28,121.344
          c8.192-8.192,20.992-8.192,29.184,0C326.656,129.536,326.656,142.336,318.464,150.528z"/>
      </g>
    </g>
  </symbol>
  <symbol id="icon-link" viewBox="0 0 515.556 515.556" fill="currentColor">
    <path d="m392.189 0c-32.946 0-63.926 12.839-87.227 36.14l-96.067 96.067c7.342-1.025 14.677-2.138 22.182-2.138 20.693 0 40.97 4.02 59.611 11.474l59.839-59.839c11.139-11.124 25.929-17.26 41.662-17.26 32.49 0 58.922 26.432 58.922 58.922 0 15.734-6.136 30.523-17.26 41.662l-107.71 107.712c-22.279 22.247-61.046 22.263-83.325.016l-45.533 45.596c23.286 23.27 54.265 36.093 87.195 36.093 32.946 0 63.925-12.839 87.227-36.14l107.712-107.712c23.301-23.301 36.14-54.281 36.14-87.227-.001-68.031-55.336-123.366-123.368-123.366z"/>
    <path d="m224.303 374.578-59.274 59.274c-11.139 11.124-25.929 17.26-41.662 17.26-32.49 0-58.922-26.432-58.922-58.922 0-15.733 6.136-30.523 17.26-41.662l107.712-107.712c22.279-22.247 61.046-22.263 83.325-.016l45.533-45.596c-46.587-46.54-127.819-46.555-174.422.047l-107.713 107.712c-23.302 23.301-36.14 54.28-36.14 87.226 0 68.032 55.335 123.366 123.366 123.366 32.946 0 63.925-12.839 87.227-36.14l94.792-94.792c-6.921.93-13.806 2.043-20.908 2.043-21.012.001-41.363-4.2-60.174-12.088z"/>
  </symbol>
  <symbol id="icon-add" viewBox="0 0 448 448" fill="currentColor">
    <path d="m272 184c-4.417969 0-8-3.582031-8-8v-176h-80v176c0 4.417969-3.582031 8-8 8h-176v80h176c4.417969 0 8 3.582031 8 8v176h80v-176c0-4.417969 3.582031-8 8-8h176v-80zm0 0"/>
  </symbol>
</svg>